simulation
nRows=56
nColumns=15
endheader
time  TH_x TH_y TH_z SC_y  SC_z  SC_x  AC_y  AC_z  AC_x  GH_y  GH_z  GH_yy  EL_x  PS_y
2.325499  0.000000  0.000000  0.000000  -31.086992  2.321059  19.823839  55.438207  2.114056  -11.884819  26.139148  42.377975  -23.844774  19.043999  0.000000
2.326497  0.000000  0.000000  0.000000  -31.080032  2.305971  19.796399  55.434598  2.101306  -11.895423  26.153216  42.342245  -23.850025  19.046663  0.000000
2.327495  0.000000  0.000000  0.000000  -31.073100  2.290895  19.768861  55.430995  2.088623  -11.905925  26.167226  42.306516  -23.855208  19.049312  0.000000
2.328493  0.000000  0.000000  0.000000  -31.066192  2.275827  19.741242  55.427388  2.075996  -11.916348  26.181203  42.270796  -23.860346  19.051946  0.000000
2.329491  0.000000  0.000000  0.000000  -31.059310  2.260770  19.713532  55.423768  2.063430  -11.926688  26.195151  42.235088  -23.865432  19.054564  0.000000
2.330489  0.000000  0.000000  0.000000  -31.052454  2.245723  19.685723  55.420123  2.050928  -11.936936  26.209076  42.199397  -23.870457  19.057164  0.000000
2.331487  0.000000  0.000000  0.000000  -31.045625  2.230687  19.657815  55.416448  2.038493  -11.947087  26.222977  42.163721  -23.875413  19.059748  0.000000
2.332486  0.000000  0.000000  0.000000  -31.038828  2.215666  19.629780  55.412733  2.026139  -11.957114  26.236841  42.128066  -23.880275  19.062312  0.000000
2.333484  0.000000  0.000000  0.000000  -31.032058  2.200656  19.601640  55.408992  2.013853  -11.967041  26.250673  42.092429  -23.885066  19.064859  0.000000
2.334482  0.000000  0.000000  0.000000  -31.025316  2.185658  19.573400  55.405233  2.001633  -11.976872  26.264469  42.056808  -23.889789  19.067390  0.000000
2.335480  0.000000  0.000000  0.000000  -31.018601  2.170670  19.545060  55.401459  1.989478  -11.986607  26.278226  42.021201  -23.894445  19.069905  0.000000
2.336478  0.000000  0.000000  0.000000  -31.011913  2.155693  19.516624  55.397674  1.977388  -11.996243  26.291939  41.985605  -23.899029  19.072404  0.000000
2.337476  0.000000  0.000000  0.000000  -31.005255  2.140727  19.488092  55.393877  1.965365  -12.005779  26.305605  41.950016  -23.903537  19.074889  0.000000
2.338474  0.000000  0.000000  0.000000  -30.998625  2.125772  19.459467  55.390069  1.953407  -12.015209  26.319221  41.914430  -23.907963  19.077360  0.000000
2.339472  0.000000  0.000000  0.000000  -30.992026  2.110828  19.430751  55.386251  1.941515  -12.024533  26.332783  41.878844  -23.912304  19.079818  0.000000
2.340470  0.000000  0.000000  0.000000  -30.985458  2.095894  19.401945  55.382427  1.929690  -12.033747  26.346287  41.843256  -23.916558  19.082262  0.000000
2.341468  0.000000  0.000000  0.000000  -30.978920  2.080971  19.373051  55.378598  1.917932  -12.042851  26.359731  41.807661  -23.920724  19.084694  0.000000
2.342466  0.000000  0.000000  0.000000  -30.972414  2.066060  19.344069  55.374767  1.906242  -12.051844  26.373112  41.772058  -23.924800  19.087113  0.000000
2.343464  0.000000  0.000000  0.000000  -30.965935  2.051157  19.315018  55.370936  1.894608  -12.060745  26.386442  41.736447  -23.928805  19.089523  0.000000
2.344462  0.000000  0.000000  0.000000  -30.959486  2.036263  19.285891  55.367105  1.883036  -12.069542  26.399711  41.700822  -23.932727  19.091921  0.000000
2.345460  0.000000  0.000000  0.000000  -30.953069  2.021381  19.256684  55.363275  1.871532  -12.078225  26.412914  41.665181  -23.936556  19.094308  0.000000
2.346458  0.000000  0.000000  0.000000  -30.946685  2.006511  19.227395  55.359447  1.860097  -12.086790  26.426045  41.629519  -23.940288  19.096685  0.000000
2.347457  0.000000  0.000000  0.000000  -30.940340  1.991656  19.198003  55.355629  1.848753  -12.095207  26.439079  41.593830  -23.943898  19.099046  0.000000
2.348455  0.000000  0.000000  0.000000  -30.934029  1.976815  19.168526  55.351825  1.837485  -12.103502  26.452033  41.558115  -23.947414  19.101396  0.000000
2.349453  0.000000  0.000000  0.000000  -30.927750  1.961986  19.138970  55.348034  1.826291  -12.111680  26.464911  41.522374  -23.950840  19.103734  0.000000
2.350451  0.000000  0.000000  0.000000  -30.921504  1.947171  19.109335  55.344257  1.815172  -12.119740  26.477712  41.486603  -23.954174  19.106060  0.000000
2.351449  0.000000  0.000000  0.000000  -30.915292  1.932370  19.079625  55.340492  1.804128  -12.127680  26.490436  41.450798  -23.957414  19.108376  0.000000
2.352447  0.000000  0.000000  0.000000  -30.909107  1.917579  19.049854  55.336735  1.793146  -12.135520  26.503099  41.414964  -23.960578  19.110682  0.000000
2.353445  0.000000  0.000000  0.000000  -30.902954  1.902801  19.020018  55.332986  1.782234  -12.143247  26.515691  41.379094  -23.963653  19.112981  0.000000
2.354443  0.000000  0.000000  0.000000  -30.896833  1.888038  18.990113  55.329246  1.771396  -12.150849  26.528206  41.343181  -23.966628  19.115270  0.000000
2.355441  0.000000  0.000000  0.000000  -30.890746  1.873291  18.960138  55.325515  1.760635  -12.158325  26.540641  41.307224  -23.969503  19.117550  0.000000
2.356439  0.000000  0.000000  0.000000  -30.884697  1.858565  18.930074  55.321804  1.749975  -12.165641  26.552968  41.271208  -23.972254  19.119820  0.000000
2.357437  0.000000  0.000000  0.000000  -30.878677  1.843857  18.899929  55.318108  1.739397  -12.172838  26.565220  41.235155  -23.974925  19.122077  0.000000
2.358435  0.000000  0.000000  0.000000  -30.872682  1.829167  18.869700  55.314419  1.728898  -12.179937  26.577423  41.199085  -23.977538  19.124319  0.000000
2.359433  0.000000  0.000000  0.000000  -30.866707  1.814490  18.839398  55.310725  1.718463  -12.186963  26.589599  41.163011  -23.980112  19.126548  0.000000
2.360431  0.000000  0.000000  0.000000  -30.860751  1.799829  18.809013  55.307016  1.708095  -12.193909  26.601752  41.126938  -23.982640  19.128762  0.000000
2.361429  0.000000  0.000000  0.000000  -30.854816  1.785185  18.778539  55.303279  1.697800  -12.200767  26.613886  41.090870  -23.985110  19.130960  0.000000
2.362428  0.000000  0.000000  0.000000  -30.848902  1.770558  18.747976  55.299504  1.687575  -12.207532  26.626001  41.054807  -23.987512  19.133143  0.000000
2.363426  0.000000  0.000000  0.000000  -30.843011  1.755953  18.717298  55.295679  1.677437  -12.214175  26.638085  41.018753  -23.989820  19.135308  0.000000
2.364424  0.000000  0.000000  0.000000  -30.837141  1.741367  18.686525  55.291821  1.667371  -12.220719  26.650140  40.982708  -23.992057  19.137460  0.000000
2.365422  0.000000  0.000000  0.000000  -30.831291  1.726799  18.655659  55.287939  1.657373  -12.227171  26.662161  40.946671  -23.994228  19.139597  0.000000
2.366420  0.000000  0.000000  0.000000  -30.825461  1.712248  18.624704  55.284038  1.647443  -12.233530  26.674144  40.910640  -23.996334  19.141722  0.000000
2.367418  0.000000  0.000000  0.000000  -30.819652  1.697714  18.593659  55.280121  1.637582  -12.239794  26.686087  40.874610  -23.998371  19.143833  0.000000
2.368416  0.000000  0.000000  0.000000  -30.813866  1.683197  18.562529  55.276188  1.627790  -12.245960  26.697985  40.838579  -24.000336  19.145931  0.000000
2.369414  0.000000  0.000000  0.000000  -30.808103  1.668697  18.531315  55.272242  1.618067  -12.252024  26.709836  40.802540  -24.002223  19.148018  0.000000
2.370412  0.000000  0.000000  0.000000  -30.802361  1.654211  18.500036  55.268284  1.608402  -12.258005  26.721649  40.766493  -24.004047  19.150095  0.000000
2.371410  0.000000  0.000000  0.000000  -30.796643  1.639740  18.468686  55.264313  1.598800  -12.263887  26.733415  40.730431  -24.005793  19.152162  0.000000
2.372408  0.000000  0.000000  0.000000  -30.790951  1.625285  18.437263  55.260331  1.589268  -12.269663  26.745127  40.694349  -24.007453  19.154219  0.000000
2.373406  0.000000  0.000000  0.000000  -30.785286  1.610848  18.405765  55.256340  1.579808  -12.275329  26.756781  40.658245  -24.009024  19.156267  0.000000
2.374404  0.000000  0.000000  0.000000  -30.779652  1.596433  18.374173  55.252348  1.570441  -12.280855  26.768356  40.622108  -24.010487  19.158301  0.000000
2.375402  0.000000  0.000000  0.000000  -30.774047  1.582037  18.342505  55.248363  1.561152  -12.286270  26.779865  40.585941  -24.011866  19.160323  0.000000
2.376401  0.000000  0.000000  0.000000  -30.768470  1.567658  18.310765  55.244386  1.551942  -12.291577  26.791311  40.549741  -24.013167  19.162334  0.000000
2.377399  0.000000  0.000000  0.000000  -30.762921  1.553298  18.278957  55.240418  1.542810  -12.296773  26.802693  40.513504  -24.014386  19.164334  0.000000
2.378397  0.000000  0.000000  0.000000  -30.757402  1.538956  18.247082  55.236457  1.533757  -12.301857  26.814011  40.477226  -24.015521  19.166323  0.000000
2.379395  0.000000  0.000000  0.000000  -30.751908  1.524628  18.215157  55.232501  1.524769  -12.306847  26.825279  40.440910  -24.016586  19.168304  0.000000
2.380393  0.000000  0.000000  0.000000  -30.746443  1.510316  18.183176  55.228549  1.515855  -12.311730  26.836488  40.404548  -24.017568  19.170277  0.000000
